<?xml version="1.0" encoding="utf-8"?>
<!-- Generator: Adobe Illustrator 27.3.1, SVG Export Plug-In . SVG Version: 6.00 Build 0)  -->
<svg version="1.1" id="_x34_57bf273-24a3-4fd8-a857-e9b918267d6a"
	 xmlns="http://www.w3.org/2000/svg" xmlns:xlink="http://www.w3.org/1999/xlink" x="0px" y="0px" viewBox="0 0 698 698"
	 style="enable-background:new 0 0 698 698;" xml:space="preserve">
<style type="text/css">
	.st0{opacity:0.5;}
	.st1{fill:url(#SVGID_1_);}
	.st2{fill:#0047BA;}
	.st3{fill:#FFFFFF;}
</style>
<g class="st0">
	
		<linearGradient id="SVGID_1_" gradientUnits="userSpaceOnUse" x1="349" y1="-9.094947e-13" x2="349" y2="698" gradientTransform="matrix(1 0 0 -1 0 698)">
		<stop  offset="0" style="stop-color:#808080;stop-opacity:0.25"/>
		<stop  offset="0.54" style="stop-color:#808080;stop-opacity:0.12"/>
		<stop  offset="1" style="stop-color:#808080;stop-opacity:0.1"/>
	</linearGradient>
	<circle class="st1" cx="349" cy="349" r="349"/>
</g>
<circle class="st2" cx="349.7" cy="346.8" r="341.6"/>
<g>
	<g>
		
			<image style="overflow:visible;opacity:0.4;" width="394" height="394" xlink:href="30408B71.png"  transform="matrix(1 0 0 1 159 159)">
		</image>
		<g>
			<path class="st3" d="M497.1,463.1C442.2,526.8,380.4,530.8,370,531c-0.4,0-0.5-0.5-0.2-0.7c36.1-19.7,78.4-51.6,105.1-101.1
				c43-79.5,19.8-97.3,8.2-101.3c-0.1,0-0.2-0.2-0.2-0.3c0-0.2,0.2-0.4,0.4-0.3C530.6,333.8,555.1,395.8,497.1,463.1 M223,429.2
				c-43-79.5-19.8-97.3-8.2-101.3c0.1,0,0.2-0.2,0.2-0.3c0-0.2-0.2-0.4-0.4-0.3c-47.4,6.5-71.8,68.5-13.8,135.8
				c54.9,63.8,116.8,67.7,127.1,67.9c0.4,0,0.5-0.5,0.2-0.7C292.1,510.6,249.8,478.6,223,429.2 M386.5,404
				c74.6-50.9,103-31.3,105.5-29.4c0.1,0.1,0.2,0,0.3-0.1c14.9-66.3-53.1-54.2-106.3,28.9C385.7,403.9,386.2,404.3,386.5,404
				 M315.3,292.2c14.8-95.9,46-85.9,49.6-84.5c0.1,0,0.3-0.1,0.2-0.2c-19.1-60-71.9-27.9-50.6,84.7
				C314.6,292.7,315.2,292.7,315.3,292.2 M205.7,374.5c0,0.1,0.1,0.2,0.3,0.1c2.5-2,30.9-21.5,105.5,29.4c0.4,0.3,0.8-0.2,0.6-0.5
				C258.8,320.3,190.8,308.3,205.7,374.5 M333.6,171.6L333.6,171.6c0.1,0.1,0.2,0.2,0.3,0.1c12-2.4,41,1.5,43.5,91.8
				c1.6,56.2-19.1,105-40.5,140.1c-0.2,0.4,0.1,0.8,0.5,0.5c8.9-5.4,60.5-39.7,76.1-122.4c16.6-87.3-35.7-128.8-79.9-110.7
				C333.5,171.2,333.4,171.5,333.6,171.6"/>
		</g>
	</g>
</g>
</svg>
