<?xml version="1.0" encoding="utf-8"?>
<!-- Generator: Adobe Illustrator 27.3.1, SVG Export Plug-In . SVG Version: 6.00 Build 0)  -->
<svg version="1.1" id="ae7ad495-543d-4c4b-9483-8059c5566fe6"
	 xmlns="http://www.w3.org/2000/svg" xmlns:xlink="http://www.w3.org/1999/xlink" x="0px" y="0px" viewBox="0 0 1009.5 839.6"
	 style="enable-background:new 0 0 1009.5 839.6;" xml:space="preserve">
<style type="text/css">
	.st0{fill:#F5F5F5;}
	.st1{fill:#ECECEC;}
	.st2{fill:#00DFBF;}
	.st3{opacity:0.2;}
	.st4{fill:#FFFFFF;}
	.st5{opacity:0.1;}
	.st6{fill:#0F4BA3;}
	.st7{fill:#0047BA;}
	.st8{fill:#2B454E;}
	.st9{fill:#1A2E35;}
	.st10{fill:#375A64;}
	.st11{fill:#FFAAA8;}
	.st12{opacity:0.5;}
	.st13{fill:#FF9090;}
	.st14{fill:#E7E7E7;}
	.st15{fill:#FAFAFA;}
	.st16{fill:#E1E1E1;}
	.st17{fill:#1157BC;}
	.st18{opacity:0.3;}
	.st19{fill:#F0F0F0;}
</style>
<path class="st0" d="M227.4,731.6c161.6,84.4,423.6,84.4,585.2,0c161.6-84.4,161.6-221.3,0-305.7c-161.6-84.4-423.6-84.4-585.2,0
	C65.8,510.3,65.8,647.2,227.4,731.6z"/>
<g id="XMLID_188_">
	<path class="st1" d="M379.3,715.9L162.2,590.6c-2.1-1.2-2.1-3.2,0-4.4l244.1-140.9c2.1-1.2,5.5-1.2,7.7,0L631,570.6
		c2.1,1.2,2.1,3.2,0,4.4L386.9,715.9C384.8,717.1,381.4,717.1,379.3,715.9z"/>
</g>
<g>
	<g>
		<g id="XMLID_185_">
			<path class="st2" d="M864.2,544.5l-10.8-5.3c0,0,0.1-20.7,5.4-40.5c8.1-29.7,32.9-52.9,52.1-54.4c24.7-1.9,18.4,20.2,3.7,28.6
				C891.1,486.3,871.8,508.3,864.2,544.5z"/>
		</g>
		<g id="XMLID_4_" class="st3">
			<path d="M864.2,544.5l-10.8-5.3c0,0,0.1-20.7,5.4-40.5c8.1-29.7,32.9-52.9,52.1-54.4c24.7-1.9,18.4,20.2,3.7,28.6
				C891.1,486.3,871.8,508.3,864.2,544.5z"/>
		</g>
	</g>
	<g id="XMLID_183_">
		<path class="st4" d="M862.5,534.5c0,0,0.1,0,0.1,0c0.7-0.1,1.1-0.7,1.1-1.3c-2.6-25.4,22-69.8,50.6-80.6c0.6-0.2,0.9-0.9,0.7-1.5
			c-0.2-0.6-0.9-0.9-1.5-0.7c-29.5,11.1-54.8,56.9-52.1,83.1C861.4,534,861.9,534.5,862.5,534.5z"/>
	</g>
	<g id="XMLID_180_">
		<path class="st2" d="M857.7,540.7c-0.2-3.7,0.1-9,0.1-10.3c0.2-4.6,1.2-9.2,3.2-13.4c2.6-5.5,7-10.1,12.5-12.7
			c3-1.4,6.4-2.3,8.5-4.8c1.8-2.2,2.2-5.1,2.8-7.9c1-4.5,2.8-9.2,6.7-11.7c3.9-2.5,8.9-2.1,13.4-1.2c6.5,1.3,12.5,2.7,18.9,0.2
			c5.2-2,10.3-4.2,15.7-5.5c6.7-1.7,21.7-3.6,24,5.8c0.6,2.6-0.4,5.3-2,7.4c-1.6,2.1-3.8,3.6-6,5.1c-3.7,2.5-7.3,5.1-11,7.6
			c-1.2,0.9-2.5,1.8-3.4,3c-2.3,3.2-1.2,7.7-2,11.5c-0.8,3.9-3.6,7.3-7.1,9.2c-3.5,1.9-7.7,2.4-11.7,1.8c-5.3-0.8-13.7-5.7-17.5,0.3
			c-1.3,2-1.7,4.3-2.2,6.6c-0.5,2.3-1.2,4.6-2.8,6.3c-2.4,2.5-6.1,2.9-9.6,3c-4.8,0.1-9.7-0.3-14.3,1c-1.9,0.6-3.3,2.8-4.5,4.3
			C866.2,545,862.6,543.3,857.7,540.7z"/>
	</g>
	<g id="XMLID_202_">
		<path class="st4" d="M860.9,539.1c-0.2,0-0.3,0-0.5-0.1c-0.5-0.3-0.8-0.9-0.5-1.5c16.7-33,62.7-53.6,89.6-59.5
			c0.6-0.1,1.2,0.2,1.3,0.8c0.1,0.6-0.2,1.2-0.8,1.3c-26.4,5.8-71.7,26.1-88.1,58.3C861.7,538.9,861.3,539.1,860.9,539.1z"/>
	</g>
	<path class="st4" d="M925.6,507.9c-0.2,0-0.5-0.1-0.7-0.2c-8.6-6.9-21.3-9-21.5-9c-0.6-0.1-1-0.7-0.9-1.3c0.1-0.6,0.7-1,1.3-0.9
		c0.5,0.1,13.5,2.2,22.5,9.5c0.5,0.4,0.6,1.1,0.2,1.6C926.2,507.8,925.9,507.9,925.6,507.9z"/>
	<path class="st4" d="M895.2,503.3c-0.1,0-0.2,0-0.3-0.1c-0.6-0.2-0.9-0.8-0.7-1.4c1.6-5.1,1.8-14.4,1.6-16.7c0-0.6,0.4-1.1,1-1.2
		c0.6,0,1.1,0.4,1.2,1c0.2,2,0.2,11.9-1.7,17.6C896.1,503,895.7,503.3,895.2,503.3z"/>
</g>
<g>
	<g>
		<path class="st2" d="M105.7,515.8c-0.4-1.8-0.9-3.5-2-4.9c-1.7-2.1-4.4-3.1-7.1-3.5c-2.7-0.4-5.4-0.5-8-1.2
			c-4-1.1-7.5-3.8-9.6-7.4c-2-3.6-2.6-8-1.5-12c0.7-2.6,2.1-4.9,2.8-7.5c1.9-6.8-3.4-9.6-8.2-12.8c-3.3-2.3-8.8-5.6-8.1-10.4
			c1.3-9,14.5-11.2,27.1-7.6c12.6,3.6,19.3,6.4,28.8,3.9s18.1-3.1,23,5.3c4.9,8.4,0,16.3,6.3,22.2c6.3,5.9,17.6,1.8,21.9,14.6v75.9
			c0-0.4-2.2-1.9-2.5-2.2c-2.3-2.1-4.7-4.1-7-6.2c-2.1-1.9-5.2-3.6-6.7-6c-2-3.3-3.1-7.3-5.2-10.7c-2.5-3.9-5.7-7.5-9.9-9.6
			c-8.1-4.1-17.8-3.4-26-7.5c-2.9-1.4-5.6-3.7-6.9-6.7C106.4,519.6,106.1,517.7,105.7,515.8z"/>
		<path class="st5" d="M105.7,515.8c-0.4-1.8-0.9-3.5-2-4.9c-1.7-2.1-4.4-3.1-7.1-3.5c-2.7-0.4-5.4-0.5-8-1.2
			c-4-1.1-7.5-3.8-9.6-7.4c-2-3.6-2.6-8-1.5-12c0.7-2.6,2.1-4.9,2.8-7.5c1.9-6.8-3.4-9.6-8.2-12.8c-3.3-2.3-8.8-5.6-8.1-10.4
			c1.3-9,14.5-11.2,27.1-7.6c12.6,3.6,19.3,6.4,28.8,3.9s18.1-3.1,23,5.3c4.9,8.4,0,16.3,6.3,22.2c6.3,5.9,17.6,1.8,21.9,14.6v75.9
			c0-0.4-2.2-1.9-2.5-2.2c-2.3-2.1-4.7-4.1-7-6.2c-2.1-1.9-5.2-3.6-6.7-6c-2-3.3-3.1-7.3-5.2-10.7c-2.5-3.9-5.7-7.5-9.9-9.6
			c-8.1-4.1-17.8-3.4-26-7.5c-2.9-1.4-5.6-3.7-6.9-6.7C106.4,519.6,106.1,517.7,105.7,515.8z"/>
	</g>
	<path class="st4" d="M171.5,553.7c-0.5,0-1-0.4-1.1-0.9c-8-45.6-61.5-87.8-93.3-95.7c-0.6-0.1-1-0.7-0.8-1.3c0.1-0.6,0.7-1,1.3-0.8
		c32.4,8,86.8,50.9,94.9,97.4c0.1,0.6-0.3,1.2-0.9,1.3C171.7,553.7,171.6,553.7,171.5,553.7z"/>
	<path class="st4" d="M95.9,490.2c-0.3,0-0.7-0.1-0.9-0.4c-0.4-0.5-0.3-1.2,0.2-1.6c7.6-6,23.2-7.8,29.4-7.4c0.6,0,1.1,0.6,1,1.2
		c0,0.6-0.6,1.1-1.2,1c-6.3-0.4-21,1.5-27.9,6.9C96.3,490.1,96.1,490.2,95.9,490.2z"/>
	<path class="st4" d="M131.2,488.8c-0.1,0-0.3,0-0.4-0.1c-0.6-0.2-0.8-0.9-0.6-1.4c4-9.8,1.8-26.4,1.8-26.5
		c-0.1-0.6,0.3-1.2,0.9-1.2c0.6-0.1,1.2,0.3,1.2,0.9c0.1,0.7,2.3,17.3-2,27.7C132,488.5,131.6,488.8,131.2,488.8z"/>
	<g id="XMLID_108_">
		<g id="XMLID_110_">
			<path class="st2" d="M167.3,583.6c-2.3-6.8-13.5-21.2-33.7-32.5c-17.6-9.8-44.7-17.1-42.3-30c2.4-12.9,27.3-13.2,44.6-2.8
				c21.7,13,33.9,39.7,35.3,50.2L167.3,583.6z"/>
		</g>
		<g id="XMLID_109_">
			<path class="st4" d="M169.4,576.5c-0.5,0-1-0.4-1.1-0.9c-4.5-23.8-38.2-56.2-65.2-55.5c-0.6,0-1.1-0.5-1.1-1.1
				c0-0.6,0.5-1.1,1.1-1.1c28-0.8,62.8,32.7,67.4,57.3c0.1,0.6-0.3,1.2-0.9,1.3C169.6,576.5,169.5,576.5,169.4,576.5z"/>
		</g>
	</g>
</g>
<g>
	<g id="XMLID_252_">
		<path class="st6" d="M846.3,148.8c0,3.5-1.8,6.9-5,8.7c0,0,0,0,0,0s0,0,0,0l-21.8,12.5c-2.6,1.5-5.7,1.7-8.4,0.8
			c-0.5,2.7-2.1,5.2-4.6,6.8l-0.8,0.5c0,0,0,0,0,0l-21.1,12.2c-0.2,0.1-0.4,0.2-0.6,0.3c-2.6,1.2-5.5,1.3-8,0.4
			c-0.5,2.9-2.1,5.5-4.9,7.1l-19.9,11.5c3.7,6.4,6,13.7,6,20.3c0,7.2-2.9,12-7.4,13.8c-0.8,0.6-1.5,1-2.4,1.4
			c-0.8,0.6-1.5,1.1-2.4,1.4c-0.8,0.6-1.5,1.1-2.4,1.4c-0.7,0.6-1.5,1-2.4,1.4c-0.8,0.6-1.5,1-2.4,1.4c-0.7,0.6-1.5,1-2.4,1.4
			c-0.8,0.6-1.5,1-2.4,1.4c-0.7,0.6-1.5,1.1-2.4,1.4c-3.8,3-9.3,3.1-15.6-0.5c-11.4-6.6-20.6-22.5-20.6-35.7
			c0-6.6,2.3-11.2,6.1-13.2c0.4-0.2,0.8-0.3,1.2-0.5c0.4-0.3,0.8-0.7,1.2-0.9c0.4-0.2,0.8-0.3,1.2-0.5c0.4-0.3,0.8-0.7,1.2-0.9
			c0.4-0.2,0.8-0.3,1.2-0.5c0.4-0.3,0.8-0.7,1.2-0.9c0.4-0.2,0.8-0.3,1.2-0.5c0.4-0.3,0.8-0.7,1.2-0.9c0.4-0.2,0.8-0.3,1.2-0.5
			c0.4-0.3,0.8-0.7,1.2-0.9c0.4-0.2,0.8-0.3,1.2-0.5c0.4-0.3,0.8-0.7,1.2-0.9c0.4-0.2,0.8-0.3,1.2-0.5c0.4-0.3,0.8-0.7,1.2-0.9
			c0.4-0.2,0.8-0.3,1.2-0.5c0.4-0.3,0.8-0.7,1.2-0.9c0.4-0.2,0.8-0.3,1.2-0.5c0.4-0.3,0.8-0.7,1.2-0.9c-0.6-0.5-1.2-1-1.8-1.5
			c-0.6-0.4-1.2-0.9-1.8-1.3s-1.2-0.8-1.8-1.2c-0.6-0.4-1.3-0.8-1.9-1.2c-2.2-1.3-4.4-2.3-6.6-3.1c-0.7-0.3-1.4-0.5-2.1-0.7
			c-2.8-0.8-5.4-1.2-7.9-1.2c-0.4,0-0.9,0-1.3,0c-0.3,0-0.6,0-0.9,0.1c-0.5,0-0.9,0.1-1.4,0.1c-4.5,0-8.7-2.3-11-6.3l-0.5-0.9
			c0-0.1,4.9-16.8,4.9-16.8l15.4-9.3c2.7-1.6,6.2-4.1,10-4.9c0.6-0.1,1.2-0.2,1.8-0.3c0.2,0,0.3,0,0.5,0c0.8,0,1.6,0,2.4,0
			c0.3,0,0.6,0.1,0.8,0.1c0.1,0,0.2,0,0.2,0c1.7,0.2,3.3,0.5,4.6,0.9c5.1,1.4,10.5,3.6,16,6.8c1.2,0.7,2.3,1.4,3.4,2.1
			c-1.9-1.7-3.9-3.4-5.9-5c-0.9-0.7-1.8-1.4-2.7-2.1c-0.1-0.1-0.3-0.2-0.4-0.3c-0.8-0.6-1.6-1.2-2.5-1.8c-1.5-1.1-3-2.1-4.5-3.1
			c-0.7-0.4-1.4-0.9-2-1.3c-1-0.7-2.1-1.4-3.2-2c-1.3-0.8-2.6-1.6-4-2.4c-12.3-7.1-23.5-10.1-33.6-10.1c-0.7,0-1.4,0-2.1,0
			c-0.8,0-1.6,0.1-2.4,0.2c-0.6,0-1.2,0.1-1.8,0.2c-0.4,0-0.8,0.1-1.2,0.2c-0.4,0-0.7,0.1-1.1,0.2c-0.6,0.1-1.1,0.2-1.7,0.3
			c-0.6,0.2-1.3,0.3-1.9,0.5c-0.7,0.2-1.4,0.4-2.1,0.6c-0.6,0.2-1.2,0.4-1.7,0.5c0,0,0,0,0,0c-1.4,0.5-2.9,0.7-4.3,0.7
			c-4.4,0-8.7-2.3-11-6.3c-0.1-0.1-0.2-0.3-0.2-0.4l3.8-16.2c0,0,0.1-0.1,0.3-0.2h0c1.7-1.2,10.4-7.2,11.1-7.6
			c3.9-2.3,8.2-4.4,12.7-6c1.8-0.7,3.7-1.3,5.6-1.9c0.8-0.2,1.7-0.5,2.5-0.7c0.8-0.2,1.7-0.4,2.5-0.6c1.7-0.4,3.5-0.7,5.2-1
			c0.8-0.1,1.5-0.2,2.3-0.3c0.2,0,0.3,0,0.5-0.1c0.8-0.1,1.7-0.2,2.5-0.2c0,0,0.1,0,0.2,0c0.8-0.1,1.6-0.1,2.5-0.2
			c0.2,0,0.4,0,0.7,0c3-0.1,6,0,9,0.3c3.8,0.4,7.7,1,11.5,2.1c0,0-0.1,0-0.1,0c-15.2-8.1-29.8-12.2-43.4-13
			c-5.7-0.4-11.2-0.2-16.5,0.5c-1.4,0.2-2.8,0.4-4.1,0.6c0,0,0,0-0.1,0c-0.1,0-0.3,0-0.4,0.1c-0.8,0.1-1.6,0.3-2.5,0.5
			c-1.4,0.3-2.8,0.6-4.1,1c-1.3,0.4-2.7,0.8-4,1.2c-1,0.3-1.9,0.6-2.9,0.9c-1.2,0.4-2.4,0.9-3.6,1.4c-1.7,0.7-3.5,1-5.3,1
			c-5.1,0-10.1-2.8-12.8-7.5l-0.3-0.5c0,0,0,0,0,0c0.2-0.8,4.2-18.7,4.2-18.7c0,0,0.1-0.1,0.1-0.1c0.1-0.1,0.2-0.2,0.3-0.2
			c0.1,0,0.1-0.1,0.2-0.2c2-1.5,8.6-6.4,9.3-6.7c4.7-2.7,9.7-5.2,15-7.1c2.9-1.1,5.9-2.1,8.9-2.9c0,0,0,0,0.1,0
			c1.1-0.3,2.1-0.6,3.2-0.8c1.1-0.3,2.2-0.5,3.3-0.8c3.4-0.7,6.8-1.2,10.3-1.6c1.2-0.1,2.3-0.2,3.5-0.3c1.2-0.1,2.4-0.1,3.6-0.2
			c1.2,0,2.4-0.1,3.6-0.1c19.6,0,41,5.3,63.2,18.1c8.7,5,16.4,9.8,23.6,14.8c0.9,0.6,1.7,1.2,2.6,1.8c2.3,1.6,4.5,3.2,6.7,4.9
			c1,0.8,1.9,1.5,2.9,2.3c2.1,1.7,4.2,3.4,6.3,5.2c0.8,0.7,1.6,1.4,2.4,2.1c0.4,0.4,0.8,0.7,1.2,1.1c0.8,0.8,1.7,1.5,2.5,2.3
			c5,4.7,9.7,9.6,14.3,15c0.6,0.7,1.2,1.4,1.7,2.1c0.9,1,1.7,2.1,2.6,3.2c1.4,1.7,2.7,3.4,4,5.2c0.8,1,1.5,2,2.3,3.1
			c1.6,2.2,3.3,4.5,4.9,6.9c0.8,1.2,1.6,2.3,2.4,3.6c0.8,1.2,1.6,2.4,2.4,3.7c0.8,1.2,1.6,2.5,2.4,3.8c1.6,2.6,3.3,5.2,5,8
			C845.9,145.3,846.3,147.1,846.3,148.8z"/>
	</g>
	<g id="XMLID_3_" class="st3">
		<path d="M846.3,148.8c0,3.5-1.8,6.9-5,8.7c0,0,0,0,0,0s0,0,0,0l-21.8,12.5c-2.6,1.5-5.7,1.7-8.4,0.8c-0.5,2.7-2.1,5.2-4.6,6.8
			l-0.8,0.5c0,0,0,0,0,0l-21.1,12.2c-0.2,0.1-0.4,0.2-0.6,0.3c-2.6,1.2-5.5,1.3-8,0.4c-0.5,2.9-2.1,5.5-4.9,7.1l-19.9,11.5
			c3.7,6.4,6,13.7,6,20.3c0,7.2-2.9,12-7.4,13.8c-0.8,0.6-1.5,1-2.4,1.4c-0.8,0.6-1.5,1.1-2.4,1.4c-0.8,0.6-1.5,1.1-2.4,1.4
			c-0.7,0.6-1.5,1-2.4,1.4c-0.8,0.6-1.5,1-2.4,1.4c-0.7,0.6-1.5,1-2.4,1.4c-0.8,0.6-1.5,1-2.4,1.4c-0.7,0.6-1.5,1.1-2.4,1.4
			c-3.8,3-9.3,3.1-15.6-0.5c-11.4-6.6-20.6-22.5-20.6-35.7c0-6.6,2.3-11.2,6.1-13.2c0.4-0.2,0.8-0.3,1.2-0.5
			c0.4-0.3,0.8-0.7,1.2-0.9c0.4-0.2,0.8-0.3,1.2-0.5c0.4-0.3,0.8-0.7,1.2-0.9c0.4-0.2,0.8-0.3,1.2-0.5c0.4-0.3,0.8-0.7,1.2-0.9
			c0.4-0.2,0.8-0.3,1.2-0.5c0.4-0.3,0.8-0.7,1.2-0.9c0.4-0.2,0.8-0.3,1.2-0.5c0.4-0.3,0.8-0.7,1.2-0.9c0.4-0.2,0.8-0.3,1.2-0.5
			c0.4-0.3,0.8-0.7,1.2-0.9c0.4-0.2,0.8-0.3,1.2-0.5c0.4-0.3,0.8-0.7,1.2-0.9c0.4-0.2,0.8-0.3,1.2-0.5c0.4-0.3,0.8-0.7,1.2-0.9
			c0.4-0.2,0.8-0.3,1.2-0.5c0.4-0.3,0.8-0.7,1.2-0.9c-0.6-0.5-1.2-1-1.8-1.5c-0.6-0.4-1.2-0.9-1.8-1.3s-1.2-0.8-1.8-1.2
			c-0.6-0.4-1.3-0.8-1.9-1.2c-2.2-1.3-4.4-2.3-6.6-3.1c-0.7-0.3-1.4-0.5-2.1-0.7c-2.8-0.8-5.4-1.2-7.9-1.2c-0.4,0-0.9,0-1.3,0
			c-0.3,0-0.6,0-0.9,0.1c-0.5,0-0.9,0.1-1.4,0.1c-4.5,0-8.7-2.3-11-6.3l-0.5-0.9c0-0.1,4.9-16.8,4.9-16.8l15.4-9.3
			c2.7-1.6,6.2-4.1,10-4.9c0.6-0.1,1.2-0.2,1.8-0.3c0.2,0,0.3,0,0.5,0c0.8,0,1.6,0,2.4,0c0.3,0,0.6,0.1,0.8,0.1c0.1,0,0.2,0,0.2,0
			c1.7,0.2,3.3,0.5,4.6,0.9c5.1,1.4,10.5,3.6,16,6.8c1.2,0.7,2.3,1.4,3.4,2.1c-1.9-1.7-3.9-3.4-5.9-5c-0.9-0.7-1.8-1.4-2.7-2.1
			c-0.1-0.1-0.3-0.2-0.4-0.3c-0.8-0.6-1.6-1.2-2.5-1.8c-1.5-1.1-3-2.1-4.5-3.1c-0.7-0.4-1.4-0.9-2-1.3c-1-0.7-2.1-1.4-3.2-2
			c-1.3-0.8-2.6-1.6-4-2.4c-12.3-7.1-23.5-10.1-33.6-10.1c-0.7,0-1.4,0-2.1,0c-0.8,0-1.6,0.1-2.4,0.2c-0.6,0-1.2,0.1-1.8,0.2
			c-0.4,0-0.8,0.1-1.2,0.2c-0.4,0-0.7,0.1-1.1,0.2c-0.6,0.1-1.1,0.2-1.7,0.3c-0.6,0.2-1.3,0.3-1.9,0.5c-0.7,0.2-1.4,0.4-2.1,0.6
			c-0.6,0.2-1.2,0.4-1.7,0.5c0,0,0,0,0,0c-1.4,0.5-2.9,0.7-4.3,0.7c-4.4,0-8.7-2.3-11-6.3c-0.1-0.1-0.2-0.3-0.2-0.4l3.8-16.2
			c0,0,0.1-0.1,0.3-0.2h0c1.7-1.2,10.4-7.2,11.1-7.6c3.9-2.3,8.2-4.4,12.7-6c1.8-0.7,3.7-1.3,5.6-1.9c0.8-0.2,1.7-0.5,2.5-0.7
			c0.8-0.2,1.7-0.4,2.5-0.6c1.7-0.4,3.5-0.7,5.2-1c0.8-0.1,1.5-0.2,2.3-0.3c0.2,0,0.3,0,0.5-0.1c0.8-0.1,1.7-0.2,2.5-0.2
			c0,0,0.1,0,0.2,0c0.8-0.1,1.6-0.1,2.5-0.2c0.2,0,0.4,0,0.7,0c3-0.1,6,0,9,0.3c3.8,0.4,7.7,1,11.5,2.1c0,0-0.1,0-0.1,0
			c-15.2-8.1-29.8-12.2-43.4-13c-5.7-0.4-11.2-0.2-16.5,0.5c-1.4,0.2-2.8,0.4-4.1,0.6c0,0,0,0-0.1,0c-0.1,0-0.3,0-0.4,0.1
			c-0.8,0.1-1.6,0.3-2.5,0.5c-1.4,0.3-2.8,0.6-4.1,1c-1.3,0.4-2.7,0.8-4,1.2c-1,0.3-1.9,0.6-2.9,0.9c-1.2,0.4-2.4,0.9-3.6,1.4
			c-1.7,0.7-3.5,1-5.3,1c-5.1,0-10.1-2.8-12.8-7.5l-0.3-0.5c0,0,0,0,0,0c0.2-0.8,4.2-18.7,4.2-18.7c0,0,0.1-0.1,0.1-0.1
			c0.1-0.1,0.2-0.2,0.3-0.2c0.1,0,0.1-0.1,0.2-0.2c2-1.5,8.6-6.4,9.3-6.7c4.7-2.7,9.7-5.2,15-7.1c2.9-1.1,5.9-2.1,8.9-2.9
			c0,0,0,0,0.1,0c1.1-0.3,2.1-0.6,3.2-0.8c1.1-0.3,2.2-0.5,3.3-0.8c3.4-0.7,6.8-1.2,10.3-1.6c1.2-0.1,2.3-0.2,3.5-0.3
			c1.2-0.1,2.4-0.1,3.6-0.2c1.2,0,2.4-0.1,3.6-0.1c19.6,0,41,5.3,63.2,18.1c8.7,5,16.4,9.8,23.6,14.8c0.9,0.6,1.7,1.2,2.6,1.8
			c2.3,1.6,4.5,3.2,6.7,4.9c1,0.8,1.9,1.5,2.9,2.3c2.1,1.7,4.2,3.4,6.3,5.2c0.8,0.7,1.6,1.4,2.4,2.1c0.4,0.4,0.8,0.7,1.2,1.1
			c0.8,0.8,1.7,1.5,2.5,2.3c5,4.7,9.7,9.6,14.3,15c0.6,0.7,1.2,1.4,1.7,2.1c0.9,1,1.7,2.1,2.6,3.2c1.4,1.7,2.7,3.4,4,5.2
			c0.8,1,1.5,2,2.3,3.1c1.6,2.2,3.3,4.5,4.9,6.9c0.8,1.2,1.6,2.3,2.4,3.6c0.8,1.2,1.6,2.4,2.4,3.7c0.8,1.2,1.6,2.5,2.4,3.8
			c1.6,2.6,3.3,5.2,5,8C845.9,145.3,846.3,147.1,846.3,148.8z"/>
	</g>
	<g id="XMLID_46731_">
		<g id="XMLID_46738_">
			<path class="st7" d="M735.2,242.6c0,13.1-9.2,18.4-20.6,11.9c-11.3-6.6-20.6-22.5-20.6-35.7c0-6.6,2.3-11.2,6.1-13.2
				c3.7-2.2,8.8-1.9,14.5,1.3c5.7,3.2,10.8,8.9,14.6,15.4C732.9,228.7,735.2,236,735.2,242.6z"/>
		</g>
		<g id="XMLID_46736_">
			<path class="st7" d="M752.4,196.1c-9.6-13.9-20.4-23-34.5-31.1c-7.3-4.2-14.3-6.8-20.8-7.8c-4.7-0.8-8.9,0.9-11.7,3.8
				c0,0.1-0.1,0.1-0.1,0.2c-3.5,3.7-4.9,9.4-2.3,14.7c0.2,0.3,0.3,0.7,0.5,1c2.3,4,6.5,6.3,11,6.3c0.5,0,0.9,0,1.4-0.1
				c0.3,0,0.6,0,0.9-0.1c0.4,0,0.8,0,1.3,0c2.5,0,5.2,0.4,7.9,1.2c0.7,0.2,1.4,0.4,2.1,0.7c2.1,0.8,4.3,1.8,6.6,3.1
				c0.7,0.4,1.3,0.8,1.9,1.2c0.6,0.4,1.2,0.8,1.8,1.2c0.6,0.4,1.2,0.8,1.8,1.3c0.6,0.4,1.2,0.9,1.8,1.4c5.1,4.1,9.8,9.2,13.9,14.8
				c3.1,4.2,8.8,5.6,13.3,2.9c3.3-1.9,5-5.3,5-8.8C754.3,199.9,753.7,197.8,752.4,196.1z"/>
		</g>
		<g id="XMLID_46734_">
			<path class="st7" d="M788,176.2c-18.3-29.6-37.1-48.9-64.9-65.3c-22.1-13-45-12.4-63.5-5.7c-1,0.4-1.9,0.8-2.7,1.4h0
				c-0.1,0.1-0.2,0.1-0.3,0.2c-5,3.5-6.8,10.5-3.8,16.2c0.1,0.1,0.2,0.3,0.2,0.4c2.3,4,6.6,6.3,11,6.3c1.4,0,2.9-0.2,4.3-0.7
				c0,0,0,0,0,0c0.6-0.2,1.1-0.4,1.7-0.5c0.7-0.2,1.4-0.4,2.1-0.6c0.6-0.2,1.3-0.3,1.9-0.5c0.6-0.1,1.1-0.2,1.7-0.3
				c0.4-0.1,0.7-0.1,1.1-0.2c0.4-0.1,0.8-0.1,1.2-0.2c0.6-0.1,1.2-0.2,1.8-0.2c0.8-0.1,1.6-0.1,2.4-0.2c0.7,0,1.4,0,2.1,0
				c10.1,0,21.3,3,33.6,10.1c1.3,0.8,2.7,1.6,4,2.4c1.1,0.6,2.1,1.3,3.2,2c0.7,0.4,1.4,0.9,2,1.3c1.5,1,3.1,2.1,4.5,3.1
				c0.8,0.6,1.7,1.2,2.5,1.8c0.2,0.1,0.3,0.2,0.4,0.3c0.9,0.7,1.8,1.4,2.7,2.1c2,1.6,4,3.2,5.9,5c0,0,0.1,0.1,0.1,0.1
				c10.3,9,19.3,19.7,27.7,32.6c1.2,1.9,3,3.2,4.9,3.9c2.5,1,5.4,0.9,8-0.4c0.2-0.1,0.4-0.2,0.6-0.3c3.3-1.9,5-5.3,5-8.8
				C789.5,179.8,789,177.9,788,176.2z"/>
		</g>
		<g id="XMLID_46732_">
			<path class="st7" d="M823.1,156.3c-26.6-44.2-48.6-64.8-90.3-88.9c-36.9-21.3-71.9-21.9-99.3-11.8c-1.1,0.4-2.1,1-3.1,1.5
				c-0.1,0.1-0.1,0.1-0.2,0.2c-0.1,0.1-0.2,0.1-0.3,0.2c0,0-0.1,0-0.1,0.1c-5.6,4.2-7.6,12.1-4.2,18.7v0c0.1,0.2,0.2,0.4,0.3,0.6
				c2.7,4.7,7.7,7.5,12.8,7.5c1.8,0,3.6-0.3,5.3-1c1.2-0.5,2.4-0.9,3.6-1.4c0.9-0.3,1.9-0.6,2.9-0.9c1.3-0.4,2.7-0.8,4-1.2
				c1.4-0.4,2.7-0.7,4.1-1c0.8-0.2,1.6-0.4,2.5-0.5c0.1,0,0.3,0,0.4-0.1c0,0,0,0,0.1,0c1.4-0.2,2.7-0.4,4.1-0.6
				c5.3-0.7,10.8-0.9,16.5-0.5c13.7,0.8,28.4,4.8,43.7,13.1c0,0,0,0,0,0c1.1,0.6,2.2,1.2,3.3,1.9c35,20.2,54.2,37.7,76.6,74.5
				c1.3,2.1,3.1,3.5,5.3,4.2c2.7,0.9,5.7,0.8,8.4-0.8c3.3-1.9,5.1-5.2,5.1-8.7C824.5,159.7,824.1,157.9,823.1,156.3z"/>
		</g>
	</g>
</g>
<g id="XMLID_30_">
	<g id="XMLID_50_">
		<polygon class="st8" points="687.5,554.5 755.5,515.2 724.9,417.9 		"/>
	</g>
	<g id="XMLID_44_">
		<g id="XMLID_49_">
			<path class="st9" d="M684.7,573.8c1.1-0.6,2.2-2.1,2.5-3.2l45.3-157l-7.7,4.4L679,577.1L684.7,573.8z"/>
		</g>
		<g id="XMLID_45_">
			<path class="st8" d="M673.2,573.8l5.7,3.3l45.9-159.2l-7.7-4.4l-45.3,157C671.6,571.7,672.2,573.2,673.2,573.8z"/>
		</g>
	</g>
	<g id="XMLID_43_">
		<path class="st8" d="M877.6,566.1c0.3,1.2-0.4,2.7-1.4,3.3l-5.7,3.3l-46-212.2l7.7-4.4l39.1,180.8L877.6,566.1z"/>
	</g>
	<g id="XMLID_42_">
		<path class="st9" d="M864.7,569.4c-1.1-0.6-2.1-2.1-2.4-3.3L816.8,356l7.7,4.4l46,212.2L864.7,569.4z"/>
	</g>
	<g id="XMLID_33_">
		<path class="st9" d="M724.9,417.9l45.9,212.2l-5.7-3.3c-1.1-0.6-2.1-2.1-2.4-3.3l-45.5-210.1L724.9,417.9z"/>
	</g>
	<g id="XMLID_31_">
		<path class="st8" d="M776.6,626.8c1.1-0.6,1.7-2.1,1.4-3.3l-45.5-210.1l-7.7,4.4l45.9,212.2L776.6,626.8z"/>
	</g>
	<g id="XMLID_32_">
		<polygon class="st8" points="824.5,351.6 832.1,356 724.9,417.9 717.3,413.5 		"/>
	</g>
	<g id="XMLID_34_">
		<polygon class="st10" points="832.1,356 724.9,417.9 764,598.7 871.3,536.8 		"/>
	</g>
</g>
<g id="XMLID_65_">
	<g id="XMLID_105_">
		<g id="XMLID_107_">
			<path class="st9" d="M648.2,374.6v113.5c0,0.9,0.6,2,1.4,2.5l3.9,2.2c0.8,0.5,2.1,0.5,2.9,0l3.9-2.2c0.8-0.5,1.4-1.6,1.4-2.5
				V374.6c0-0.9-0.7-1.7-1.7-1.7h-10.2C649,372.9,648.2,373.7,648.2,374.6z"/>
		</g>
		<g id="XMLID_106_">
			<path class="st10" d="M660.1,372.9h-3.4c-0.9,0-1.7,0.7-1.7,1.7l0,117.4c0,0.9,0.6,1.3,1.4,0.8l3.9-2.2c0.8-0.5,1.4-1.6,1.4-2.5
				V374.6C661.7,373.7,661,372.9,660.1,372.9z"/>
		</g>
	</g>
	<g id="XMLID_73_">
		<g id="XMLID_104_">
			<path class="st9" d="M583.1,412v113.5c0,0.9,0.6,2,1.4,2.5l3.9,2.2c0.8,0.5,2.1,0.5,2.9,0l3.9-2.2c0.8-0.5,1.4-1.6,1.4-2.5V412
				c0-0.9-0.7-1.7-1.7-1.7h-10.2C583.9,410.4,583.1,411.1,583.1,412z"/>
		</g>
		<g id="XMLID_103_">
			<path class="st10" d="M594.9,410.4h-3.4c-0.9,0-1.7,0.7-1.7,1.7l0,117.4c0,0.9,0.6,1.3,1.4,0.8l3.9-2.2c0.8-0.5,1.4-1.6,1.4-2.5
				V412C596.6,411.1,595.9,410.4,594.9,410.4z"/>
		</g>
	</g>
	<g id="XMLID_72_">
		<path class="st10" d="M587.4,328.7c0.2,1.6-0.2,3.2-1.2,4.5c-1,1.3-2.4,2.1-4.1,2.3c-0.3,0-0.5,0-0.8,0c-3.1,0-5.7-2.3-6-5.3
			c-3.5-28,1.5-90.7,13.5-126c1.2-3.6,5.5-5.2,8.8-3.3l0,0c2.5,1.5,3.6,4.5,2.7,7.2C588.8,241.4,584.1,301.8,587.4,328.7z"/>
	</g>
	<g id="XMLID_71_">
		<path class="st8" d="M658,344.9c-1.6,0-3.1-1-3.7-2.7c-7.8-23.8-48.5-46.2-74.2-46.2c-2.1,0-3.9-1.7-3.9-3.9
			c0-2.1,1.7-3.9,3.9-3.9c28.5,0,72.6,24.3,81.6,51.6c0.7,2-0.4,4.2-2.5,4.9C658.8,344.8,658.4,344.9,658,344.9z"/>
	</g>
	<g id="XMLID_70_">
		<path class="st8" d="M662.2,309.5c-1.6,0-3.1-1-3.7-2.7c-8.2-24.8-49.8-45.7-75-43.1c-2.1,0.2-4-1.3-4.2-3.5
			c-0.2-2.1,1.3-4,3.5-4.2c28.4-2.9,73.8,20,83.1,48.4c0.7,2-0.4,4.2-2.5,4.9C663,309.4,662.6,309.5,662.2,309.5z"/>
	</g>
	<g id="XMLID_69_">
		<path class="st8" d="M671.5,282.2c-1.5,0-2.9-0.9-3.5-2.3c-11.9-27.2-55.7-50.4-78.4-47.2c-2.1,0.3-4.1-1.2-4.4-3.3
			c-0.3-2.1,1.2-4.1,3.3-4.4c25.7-3.6,73.2,21.4,86.5,51.8c0.9,2,0,4.2-2,5.1C672.6,282.1,672.1,282.2,671.5,282.2z"/>
	</g>
	<g id="XMLID_68_">
		<path class="st10" d="M680.6,248.9c2.7,1.5,3.7,4.9,2.5,7.7c-14,32.7-21.4,72.6-21.4,116.4v5.9l-0.5,0.5c-0.5,0.6-1.2,0.8-1.8,0.8
			c-0.9,0-1.8-0.3-2.5-0.6c-0.4-0.1-1-0.4-1.2-0.4c-3.4,0-6.1-2.7-6.1-6.1c0-45.4,7.7-86.9,22.4-121.2
			C673.4,248.4,677.5,247.1,680.6,248.9L680.6,248.9z"/>
	</g>
	<g id="XMLID_67_">
		<path class="st9" d="M661.7,377.4v1.5c0,2.4-1.6,5.6-3.6,7l-64.7,46.8c-2,1.4-5.3,1.6-7.4,0.4l-91.2-52.7
			c-2.1-1.2-3.8-4.2-3.8-6.6v-1.5c0-2.4,1.8-5.3,4-6.3l81.9-37.8c2.2-1,5.7-0.9,7.9,0.4l73.2,42.3C660,372,661.7,374.9,661.7,377.4z
			"/>
	</g>
	<g id="XMLID_66_">
		<path class="st8" d="M657.9,370.8l-73.2-42.3c-2.1-1.2-5.6-1.4-7.9-0.4L495,365.9c-2.2,1-2.3,2.8-0.2,4.1l91.2,52.7
			c2.1,1.2,5.4,1.1,7.4-0.4l64.7-46.7C660.1,374.1,660,372,657.9,370.8z"/>
	</g>
</g>
<g id="XMLID_187_">
	<g id="XMLID_92_">
		<g id="XMLID_94_">
			<path class="st9" d="M185.1,377v113.5c0,0.9-0.6,2-1.4,2.5l-3.9,2.2c-0.8,0.5-2.1,0.5-2.9,0L173,493c-0.8-0.5-1.4-1.6-1.4-2.5
				V377c0-0.9,0.7-1.7,1.7-1.7l10.2,0C184.3,375.3,185.1,376.1,185.1,377z"/>
		</g>
		<g id="XMLID_93_">
			<path class="st10" d="M173.3,375.3h3.4c0.9,0,1.7,0.7,1.7,1.7l0,117.4c0,0.9-0.6,1.3-1.4,0.8L173,493c-0.8-0.5-1.4-1.6-1.4-2.5
				V377C171.6,376.1,172.3,375.3,173.3,375.3z"/>
		</g>
	</g>
	<g id="XMLID_89_">
		<g id="XMLID_91_">
			<path class="st9" d="M250.2,414.5v113.5c0,0.9-0.6,2-1.4,2.5l-3.9,2.2c-0.8,0.5-2.1,0.5-2.9,0l-3.9-2.2c-0.8-0.5-1.4-1.6-1.4-2.5
				V414.5c0-0.9,0.7-1.7,1.7-1.7l10.2,0C249.4,412.8,250.2,413.5,250.2,414.5z"/>
		</g>
		<g id="XMLID_90_">
			<path class="st10" d="M238.4,412.8h3.4c0.9,0,1.7,0.7,1.7,1.7l0,117.4c0,0.9-0.6,1.3-1.4,0.8l-3.9-2.2c-0.8-0.5-1.4-1.6-1.4-2.5
				V414.5C236.7,413.5,237.4,412.8,238.4,412.8z"/>
		</g>
	</g>
	<g id="XMLID_88_">
		<path class="st2" d="M245.9,331.2c-0.2,1.6,0.2,3.2,1.2,4.5c1,1.3,2.4,2.1,4.1,2.3c0.3,0,0.5,0,0.8,0c3.1,0,5.7-2.3,6-5.3
			c3.5-28-1.5-90.7-13.5-126c-1.2-3.6-4.7-4.4-8.1-2.5l0,0c-2.5,1.5-4.4,3.7-3.4,6.4C244.5,243.8,249.2,304.2,245.9,331.2z"/>
	</g>
	<g id="XMLID_87_">
		<path class="st8" d="M175.3,347.3c-0.4,0-0.8-0.1-1.2-0.2c-2-0.7-3.1-2.9-2.5-4.9c9-27.3,53.1-51.6,81.6-51.6
			c2.1,0,3.9,1.7,3.9,3.9c0,2.1-1.7,3.9-3.9,3.9c-25.8,0-66.4,22.4-74.2,46.2C178.4,346.2,176.9,347.3,175.3,347.3z"/>
	</g>
	<g id="XMLID_86_">
		<path class="st8" d="M171.1,311.9c-0.4,0-0.8-0.1-1.2-0.2c-2-0.7-3.1-2.9-2.5-4.9c9.3-28.4,54.7-51.3,83.1-48.4
			c2.1,0.2,3.7,2.1,3.5,4.2c-0.2,2.1-2.1,3.7-4.2,3.5c-25.1-2.6-66.8,18.3-75,43.1C174.3,310.9,172.8,311.9,171.1,311.9z"/>
	</g>
	<g id="XMLID_85_">
		<path class="st8" d="M161.8,284.6c-0.5,0-1-0.1-1.6-0.3c-2-0.9-2.8-3.1-2-5.1c13.4-30.4,60.8-55.3,86.5-51.8
			c2.1,0.3,3.6,2.2,3.3,4.4c-0.3,2.1-2.2,3.6-4.4,3.3c-22.7-3.2-66.4,20.1-78.4,47.2C164.7,283.7,163.3,284.6,161.8,284.6z"/>
	</g>
	<g id="XMLID_79_">
		<path class="st10" d="M152.7,251.3c-2.7,1.5-3.7,4.9-2.5,7.7c14,32.7,21.4,72.6,21.4,116.4v5.9l0.5,0.5c0.5,0.6,1.2,0.8,1.8,0.8
			c0.9,0,1.8-0.3,2.5-0.6c0.4-0.1,1-0.4,1.2-0.4c3.4,0,6.1-2.7,6.1-6.1c0-45.4-7.7-86.9-22.4-121.2
			C159.9,250.9,155.8,249.5,152.7,251.3L152.7,251.3z"/>
	</g>
	<g id="XMLID_78_">
		<path class="st9" d="M171.6,379.8v1.5c0,2.4,1.6,5.6,3.6,7l64.7,46.8c2,1.4,5.3,1.6,7.4,0.4l91.2-52.7c2.1-1.2,3.8-4.2,3.8-6.6
			v-1.5c0-2.4-1.8-5.3-4-6.3l-81.9-37.8c-2.2-1-5.7-0.9-7.9,0.4l-73.2,42.3C173.3,374.4,171.6,377.4,171.6,379.8z"/>
	</g>
	<g id="XMLID_77_">
		<path class="st8" d="M175.4,373.2l73.2-42.3c2.1-1.2,5.6-1.4,7.9-0.4l81.9,37.8c2.2,1,2.3,2.8,0.2,4.1l-91.2,52.7
			c-2.1,1.2-5.4,1.1-7.4-0.4L175.2,378C173.2,376.6,173.3,374.4,175.4,373.2z"/>
	</g>
</g>
<g id="XMLID_14838_">
	<g id="XMLID_14819_">
		<g id="XMLID_14822_">
			<g id="XMLID_14825_">
				<path class="st2" d="M383.7,498.7c14.4,20.4,26,25.4,29.9,29.8c4,4.4,1.3,12.8-8.8,14.5c-10.1,1.7-20.9-1.1-27.2-7.8
					c-6.3-6.7-10.5-15.3-16.9-20.3c-6.5-5-9.8-6.3-10.6-11.9c-0.8-5.6,4.8-22,4.8-22L383.7,498.7z"/>
			</g>
		</g>
		<g id="XMLID_14821_">
			<g id="XMLID_14823_">
				<path class="st11" d="M377.5,468.1c-1.7,7.2-3.4,13.4,1.2,22.3c1.4,2.7,3,5.4,5,8.3c8.4,12.1,15.2,21.6,16.4,23.3
					c1.2,1.7-6.4,6.6-14.8,2.7c-8.4-3.8-15.3-16.6-20.5-24.4c-2.4-3.5-4.7-6.6-6.5-9c-2.5-3.3-3.7-7.3-3.4-11.4l0.8-11.5
					L377.5,468.1z"/>
			</g>
		</g>
	</g>
	<g id="XMLID_14815_">
		<g id="XMLID_14817_">
			<g id="XMLID_14820_">
				<path class="st8" d="M330.5,523.7c14.4,20.4,26,25.4,29.9,29.8c4,4.4,1.3,12.8-8.8,14.5c-10.1,1.7-20.9-1.1-27.2-7.8
					c-6.3-6.7-10.5-15.3-16.9-20.3c-6.5-5-9.8-6.3-10.6-11.9c-0.8-5.6,4.8-22,4.8-22L330.5,523.7z"/>
			</g>
		</g>
		<g id="XMLID_14816_">
			<g id="XMLID_14818_">
				<path class="st11" d="M324.3,493.1c-1.7,7.2-3.4,13.4,1.2,22.3c1.4,2.7,3,5.4,5,8.3c8.4,12.1,15.2,21.6,16.4,23.3
					c1.2,1.7-6.4,6.6-14.8,2.7c-8.4-3.8-15.3-16.6-20.5-24.4c-2.4-3.5-4.7-6.6-6.5-9c-2.5-3.3-3.7-7.3-3.4-11.4l0.8-11.5
					L324.3,493.1z"/>
			</g>
		</g>
	</g>
</g>
<g id="XMLID_14803_">
	<path class="st8" d="M251.7,191.3L251.7,191.3c-24.3,0-44.1-19.7-44.1-44.1v-0.4c0-21.6,17.5-39.1,39.1-39.1h9.9
		c21.6,0,39.1,17.5,39.1,39.1v0.4C295.7,171.6,276,191.3,251.7,191.3z"/>
</g>
<g id="XMLID_97_">
	<path class="st11" d="M295.6,296.6c-2.9-2.3-6-6.5-9-15.1c-2.1-5.9-21.1-59.5-24.1-72.4c0,0-2.7-3.7,4.4-8.4
		c9.5-1.1,17.6-1,24.3,16.6c6.7,17.8,20.1,59.5,20.1,59.5"/>
</g>
<g>
	<g id="XMLID_14771_">
		<path class="st7" d="M201.3,331.1c-4.8,8.7-8.9,25.4-4.3,38.7c2.6,7.4,37.2,45.4,61.6,42.3c42-5.5,81-61.3,81-61.3L283.9,319
			L201.3,331.1z"/>
	</g>
	<g id="XMLID_7_" class="st5">
		<path class="st7" d="M201.3,331.1c-4.8,8.7-8.9,25.4-4.3,38.7c2.6,7.4,37.2,45.4,61.6,42.3c42-5.5,81-61.3,81-61.3L283.9,319
			L201.3,331.1z"/>
	</g>
</g>
<g>
	<g id="XMLID_14798_">
		<path class="st7" d="M264.2,200.8c6.4-0.5,14-0.5,21.3,12.6c5.6,10.2,8.7,14.5,8.5,28.5c-0.2,10.1-6.3,22.2-7.7,30.3
			c-1.4,8-2.1,43.7-2.3,46.8c0,0-14.7,18.9-42.6,19.6c-27.9,0.7-39.9-7.5-39.9-7.5l21.3-38.3l-5.5-77.9l20.9-12.5L264.2,200.8z"/>
	</g>
	<g id="XMLID_5_" class="st12">
		<path class="st7" d="M264.2,200.8c6.4-0.5,14-0.5,21.3,12.6c5.6,10.2,8.7,14.5,8.5,28.5c-0.2,10.1-6.3,22.2-7.7,30.3
			c-1.4,8-2.1,43.7-2.3,46.8c0,0-14.7,18.9-42.6,19.6c-27.9,0.7-39.9-7.5-39.9-7.5l21.3-38.3l-5.5-77.9l20.9-12.5L264.2,200.8z"/>
	</g>
</g>
<g id="XMLID_14763_">
	<path class="st11" d="M275.8,125.6c4.7,2.7,15.9,14.5,15.3,39c-0.5,20.8-7.2,25.9-10.6,27.4c-3.4,1.5-9.9,0.6-16.3-0.5V204
		c0,0,8.8,10.2,8.2,15.9c-0.6,5.7-12.7,7.1-20.9,1.5c-8.2-5.6-13.5-14.1-13.5-14.1v-30.2c0,0-4.3,5.7-11.3,1.1
		c-7-4.7-7.3-16.2-3.2-20.3c4.1-4.1,12.9-2.8,14.5,2.9c0,0,8.6,2.2,22.1-5.2C273.7,148.2,274.9,133.7,275.8,125.6z"/>
</g>
<g id="XMLID_14778_">
	<g id="XMLID_14784_">
		<path class="st8" d="M267.9,159.4c0.1,1.5-1,2.8-2.5,2.8c-1.4,0.1-2.7-1.1-2.7-2.6c-0.1-1.5,1-2.8,2.5-2.8
			C266.6,156.7,267.8,157.9,267.9,159.4z"/>
	</g>
	<g id="XMLID_14783_">
		<path class="st8" d="M263.1,151.4l-5.4,3.4c-0.9-1.6-0.4-3.6,1.1-4.5C260.3,149.3,262.2,149.8,263.1,151.4z"/>
	</g>
	<g id="XMLID_14782_">
		<path class="st13" d="M268.6,177l6.1,1.9c-0.5,1.7-2.3,2.7-3.9,2.2C269,180.6,268.1,178.7,268.6,177z"/>
	</g>
	<g id="XMLID_14780_">
		<path class="st8" d="M288.1,157.5c0.1,1.5-1,2.8-2.5,2.8c-1.4,0.1-2.7-1.1-2.7-2.6c-0.1-1.5,1-2.8,2.5-2.8
			C286.8,154.8,288,156,288.1,157.5z"/>
	</g>
	<g id="XMLID_14779_">
		<polygon class="st13" points="275.8,156 276.2,171.7 284.5,169.2 		"/>
	</g>
</g>
<g id="XMLID_14765_">
	<path class="st13" d="M264.2,191.5c-5.3-0.6-15.9-3.8-18.2-7.4c0,0,0.1,2.4,3.6,5.7c3.5,3.3,14.7,5.7,14.7,5.7V191.5z"/>
</g>
<g id="XMLID_64_">
	<path class="st8" d="M272.4,123.8c0,0,4.6,16-0.9,30.9c0,0,20.1,1.3,21.2-13.9c0,0-1-12.5-9.8-19.9L272.4,123.8z"/>
</g>
<g id="XMLID_57_">
	<path class="st8" d="M226.1,105.8c7,6.3,1.3,12.3-5.4,19.8c-6.7,7.5-11.8,13.7-18.8,7.4c-7-6.3-7.3-17.4-0.6-24.9
		C207.9,100.5,219.1,99.5,226.1,105.8z"/>
</g>
<g id="XMLID_14720_">
	<g id="XMLID_371_">
		<path class="st9" d="M374.1,551.7v151.3c0,1.2,0.9,2.7,1.9,3.3l5.2,3c1.1,0.6,2.8,0.6,3.8,0l5.2-3c1.1-0.6,1.9-2.1,1.9-3.3V551.7
			c0-1.2-1-2.2-2.2-2.2l-13.6,0C375.1,549.4,374.1,550.4,374.1,551.7z"/>
	</g>
	<g id="XMLID_84_">
		<path class="st10" d="M389.9,549.4h-4.6c-1.2,0-2.2,1-2.2,2.2l0,156.5c0,1.2,0.9,1.7,1.9,1.1l5.2-3c1.1-0.6,1.9-2.1,1.9-3.3V551.7
			C392.1,550.4,391.1,549.4,389.9,549.4z"/>
	</g>
</g>
<g id="XMLID_14721_">
	<g id="XMLID_378_">
		<path class="st9" d="M607.8,416.7V568c0,1.2,0.9,2.7,1.9,3.3l5.2,3c1.1,0.6,2.8,0.6,3.8,0l5.2-3c1.1-0.6,1.9-2.1,1.9-3.3V416.7
			c0-1.2-1-2.2-2.2-2.2l-13.6,0C608.8,414.5,607.8,415.5,607.8,416.7z"/>
	</g>
	<g id="XMLID_377_">
		<path class="st10" d="M623.6,414.5H619c-1.2,0-2.2,1-2.2,2.2l0,156.5c0,1.2,0.9,1.7,1.9,1.1l5.2-3c1.1-0.6,1.9-2.1,1.9-3.3V416.7
			C625.8,415.5,624.8,414.5,623.6,414.5z"/>
	</g>
</g>
<g id="XMLID_14722_">
	<g id="XMLID_375_">
		<path class="st8" d="M167.3,432.3v151.3c0,1.2,0.9,2.7,1.9,3.3l5.2,3c1.1,0.6,2.8,0.6,3.8,0l5.2-3c1.1-0.6,1.9-2.1,1.9-3.3V432.3
			c0-1.2-1-2.2-2.2-2.2l-13.6,0C168.3,430.1,167.3,431.1,167.3,432.3z"/>
	</g>
	<g id="XMLID_373_">
		<path class="st9" d="M183.1,430.1h-4.6c-1.2,0-2.2,1-2.2,2.2l0,156.5c0,1.2,0.9,1.7,1.9,1.1l5.2-3c1.1-0.6,1.9-2.1,1.9-3.3V432.3
			C185.3,431.1,184.3,430.1,183.1,430.1z"/>
	</g>
</g>
<g id="XMLID_56_">
	<path class="st8" d="M379.3,562.8L162.2,437.5c-2.1-1.2-3.8-4.2-3.8-6.6v-1.5c0-2.4,1.7-5.4,3.8-6.6l244.1-140.9
		c2.1-1.2,5.5-1.2,7.7,0L631,407.1c2.1,1.2,3.8,4.2,3.8,6.6v1.5c0,2.4-1.7,5.4-3.8,6.6L386.9,562.8C384.8,564,381.4,564,379.3,562.8
		z"/>
</g>
<g id="XMLID_400_">
	<path class="st9" d="M383.1,295.1L162.2,422.7c-2.1,1.2-3.8,4.2-3.8,6.6v1.5c0,2.4,1.7,5.4,3.8,6.6l217.1,125.3
		c1.1,0.6,2.4,0.9,3.8,0.9V295.1z"/>
</g>
<g id="XMLID_55_">
	<path class="st10" d="M379.3,552.4L162.2,427.1c-2.1-1.2-2.1-3.2,0-4.4l244.1-140.9c2.1-1.2,5.5-1.2,7.7,0L631,407.1
		c2.1,1.2,2.1,3.2,0,4.4L386.9,552.4C384.8,553.6,381.4,553.6,379.3,552.4z"/>
</g>
<g id="XMLID_51_">
	<g id="XMLID_52_">
		<g id="XMLID_350_">
			<path class="st14" d="M278.3,387.3v2.2c0,2.3,1.2,4.4,3.2,5.5l60.5,34.8c1,0.6,2.1,0.8,3.2,0.8c1.1,0,2.2-0.3,3.2-0.8l111-64.1
				c2-1.1,3.2-3.2,3.2-5.5v-1.5l-117.3,67.7L278.3,387.3z"/>
		</g>
		<g id="XMLID_354_">
			<path class="st15" d="M462.5,358.7l-65.8-38c-1.2-0.7-2.6-0.7-3.8,0l-114.2,65.9c-0.6,0.3-0.6,1.1,0,1.5l66.4,38.4L462.5,358.7z"
				/>
		</g>
		<g id="XMLID_353_">
			<polygon class="st14" points="344.5,420.9 309,400.4 412.8,340.5 448.5,360.8 			"/>
		</g>
		<g id="XMLID_352_">
			<polygon class="st16" points="327.1,363.9 327.7,364.3 345.1,374.3 376.1,356.5 376.7,356.1 358.7,345.7 			"/>
		</g>
		<g id="XMLID_96_">
			<path class="st11" d="M311.2,276.8c0,0,17.1,14.1,36.8,29.8c8.9,7.1,18.8,14.2,26.9,15.1c6.5,0.7,17.9,1.1,20.4,3.4
				c2.5,2.3,9.5,14,11.9,17.8c2.3,3.8,0.8,12.7-6.7,13.3c-7.5,0.5-10.6-4.7-13.7-8c-3.1-3.3-5.6-5-5.6-5s-7.7,0.4-12.1-2.1
				c-4.4-2.6-6.9-4.1-6.9-4.1c-15.4-8.6-54.2-30.1-66.7-40.3"/>
		</g>
		<g id="XMLID_351_">
			<polygon class="st14" points="327.7,364.3 345.1,374.3 376.1,356.5 358.7,346.4 			"/>
		</g>
		<g id="XMLID_349_">
			<path class="st16" d="M345.1,426.5v4.2c1.1,0,2.2-0.3,3.2-0.8l111-64.1c2-1.1,3.2-3.2,3.2-5.5v-1.5L345.1,426.5z"/>
		</g>
		<g id="XMLID_348_">
			<path class="st1" d="M346.9,427.4c2.1,0.8,4.5,0.7,6.5-0.5l110.5-63.8c1.9-1.1,3.3-3,3.7-5.3l12.1-72.1c0.1-0.4,0.1-0.8,0.1-1.2
				c0-2-0.8-3.9-2.2-5.3l-114.8,66.3c-1.4,0.8-2.4,2.3-2.7,3.9L346.9,427.4z"/>
		</g>
		<g id="XMLID_347_">
			<path class="st0" d="M345.1,426.5l0.8,0.4c0.3,0.2,0.7,0.4,1,0.5l13.1-78.1c0.3-1.6,1.3-3.1,2.7-3.9l114.8-66.3
				c-0.4-0.4-1-0.8-1.5-1.2l-115.1,66.4c-1.4,0.8-2.4,2.3-2.7,3.9L345.1,426.5z"/>
		</g>
		<g id="XMLID_53_">
			<path class="st16" d="M409.1,360.8c0.8-4.8,5.8-11.2,11.1-14.3c5.3-3.1,9-1.7,8.2,3.2c-0.8,4.8-5.8,11.2-11.1,14.3
				C412,367,408.3,365.6,409.1,360.8z"/>
		</g>
	</g>
</g>
<g id="XMLID_370_">
	<polygon class="st2" points="275.2,430.1 266.2,435.3 275.2,440.4 284.2,435.3 	"/>
</g>
<g id="XMLID_369_">
	<path class="st17" d="M232.6,444.5l32.1-18.5c1.1-0.6,2.8-0.6,3.8,0l23.1,13.4c1.1,0.6,1.9,2.1,1.9,3.3v0.8c0,1.2-0.9,2.7-1.9,3.3
		l-32.1,18.5c-1.1,0.6-2.8,0.6-3.8,0l-23.1-13.4c-1.1-0.6-1.9-2.1-1.9-3.3v-0.8C230.7,446.6,231.5,445.1,232.6,444.5z"/>
</g>
<g>
	<g id="XMLID_368_">
		<path class="st7" d="M255.7,460.1l-23.1-13.4c-1.1-0.6-1.1-1.6,0-2.2l32.1-18.5c1.1-0.6,2.8-0.6,3.8,0l23.1,13.4
			c1.1,0.6,1.1,1.6,0,2.2l-32.1,18.5C258.5,460.7,256.8,460.7,255.7,460.1z"/>
	</g>
	<g id="XMLID_11_" class="st18">
		<path class="st7" d="M255.7,460.1l-23.1-13.4c-1.1-0.6-1.1-1.6,0-2.2l32.1-18.5c1.1-0.6,2.8-0.6,3.8,0l23.1,13.4
			c1.1,0.6,1.1,1.6,0,2.2l-32.1,18.5C258.5,460.7,256.8,460.7,255.7,460.1z"/>
	</g>
</g>
<g>
	<g id="XMLID_74_">
		<path class="st17" d="M264.3,429.7c-1.3,0.7-1.3,1.9,0,2.7c1.3,0.7,3.4,0.7,4.6,0c1.3-0.7,1.3-1.9,0-2.7
			C267.7,429,265.6,429,264.3,429.7z"/>
	</g>
	<g id="XMLID_81_">
		<path class="st17" d="M255.3,434.9c-1.3,0.7-1.3,1.9,0,2.7c1.3,0.7,3.4,0.7,4.6,0c1.3-0.7,1.3-1.9,0-2.7
			C258.7,434.2,256.6,434.2,255.3,434.9z"/>
	</g>
	<g id="XMLID_13_" class="st3">
		<path class="st17" d="M264.3,429.7c-1.3,0.7-1.3,1.9,0,2.7c1.3,0.7,3.4,0.7,4.6,0c1.3-0.7,1.3-1.9,0-2.7
			C267.7,429,265.6,429,264.3,429.7z"/>
	</g>
	<g id="XMLID_12_" class="st3">
		<path class="st17" d="M255.3,434.9c-1.3,0.7-1.3,1.9,0,2.7c1.3,0.7,3.4,0.7,4.6,0c1.3-0.7,1.3-1.9,0-2.7
			C258.7,434.2,256.6,434.2,255.3,434.9z"/>
	</g>
</g>
<g>
	<g id="XMLID_229_">
		<g id="XMLID_80_">
			<path class="st7" d="M233.7,455.4c-0.4,0-0.8-0.2-1-0.6c-0.3-0.5-0.1-1.2,0.4-1.5l3.5-2c0.5-0.3,1.2-0.1,1.5,0.4
				c0.3,0.5,0.1,1.2-0.4,1.5l-3.5,2C234.1,455.3,233.9,455.4,233.7,455.4z"/>
		</g>
		<g id="XMLID_83_">
			<path class="st7" d="M233.7,456.5c-1.2,0-2.2-1-2.2-2.2v-34.6c0-1.2,1-2.2,2.2-2.2c1.2,0,2.2,1,2.2,2.2v34.6
				C235.9,455.5,234.9,456.5,233.7,456.5z"/>
		</g>
	</g>
	<g id="XMLID_8_" class="st3">
		<g id="XMLID_10_">
			<path class="st7" d="M233.7,455.4c-0.4,0-0.8-0.2-1-0.6c-0.3-0.5-0.1-1.2,0.4-1.5l3.5-2c0.5-0.3,1.2-0.1,1.5,0.4
				c0.3,0.5,0.1,1.2-0.4,1.5l-3.5,2C234.1,455.3,233.9,455.4,233.7,455.4z"/>
		</g>
		<g id="XMLID_9_">
			<path class="st7" d="M233.7,456.5c-1.2,0-2.2-1-2.2-2.2v-34.6c0-1.2,1-2.2,2.2-2.2c1.2,0,2.2,1,2.2,2.2v34.6
				C235.9,455.5,234.9,456.5,233.7,456.5z"/>
		</g>
	</g>
</g>
<path class="st19" d="M293.6,451.4c-0.7,0-1.5-0.2-2.1-0.6l-5.2-3c-0.5-0.3-0.7-1-0.4-1.5c0.3-0.5,1-0.7,1.5-0.4l5.2,3
	c0.6,0.4,1.4,0.4,2.1,0l42.9-24.5c0.5-0.3,1.2-0.1,1.5,0.4c0.3,0.5,0.1,1.2-0.4,1.5l-42.9,24.5C295.1,451.2,294.3,451.4,293.6,451.4
	z"/>
<g id="XMLID_394_">
	<g id="XMLID_372_">
		<path class="st7" d="M260.1,413.8c0,3.4-2.7,6.1-6.1,6.1s-6.1-2.7-6.1-6.1c0-3.4,2.7-6.1,6.1-6.1S260.1,410.5,260.1,413.8z"/>
	</g>
	<g id="XMLID_379_">
		<g id="XMLID_399_">
			<path class="st7" d="M254,397.8c-6.1,0-11.5,3.4-14.2,8.5c-0.5,1-0.3,2.3,0.6,3l0,0c1.2,0.9,2.9,0.6,3.5-0.7c1.9-3.6,5.7-6,10-6
				c4.3,0,8.1,2.4,10,6c0.7,1.3,2.4,1.6,3.6,0.7l0,0c0.9-0.7,1.2-2,0.6-3C265.5,401.2,260.2,397.8,254,397.8z"/>
		</g>
	</g>
	<g id="XMLID_392_">
		<g id="XMLID_396_">
			<path class="st7" d="M254,388c-9.1,0-17.1,4.8-21.7,11.9c-0.7,1.1-0.5,2.4,0.5,3.2l0,0c1.1,0.9,2.7,0.6,3.5-0.6
				c3.7-5.9,10.3-9.8,17.7-9.8c7.5,0,14,3.9,17.8,9.8c0.8,1.2,2.4,1.5,3.5,0.6l0,0c1-0.8,1.2-2.2,0.5-3.2
				C271.2,392.8,263.2,388,254,388z"/>
		</g>
	</g>
</g>
<g id="XMLID_95_">
	<path class="st11" d="M293.2,375.7c-15.4-8.6-47.8-31.7-60.3-41.9c-2.9-2.3-6.7-3.7-8.6-12.8c-1.3-6.1-16.9-58.4-19.7-77.1
		c-2.7-18.3,5.6-24.3,12.6-29c10.1,8,10.5,17.9,15.1,34.6c5,18.4,16.2,64.4,16.2,64.4s14.7,14.6,31.6,31.1
		c8.1,7.9,17.6,14.5,25.7,15.4c6.5,0.7,17.9,1.1,20.4,3.4c2.5,2.3,9.5,14,11.9,17.8c2.3,3.8,0.8,12.7-6.7,13.3s-10.6-4.7-13.7-8
		c-3.1-3.3-5.6-5-5.6-5s-7.7,0.4-12.1-2.1C295.7,377.3,293.2,375.7,293.2,375.7z"/>
</g>
<g>
	<g>
		<path class="st4" d="M832.5,479.4c-5.3,15.2-14.5,21.2-16.1,22.1c-0.1,0-0.1,0-0.1-0.1c4.5-6.3,9.4-15.2,11.2-26
			c2.9-18.1-1.7-19.5-3.8-19.3c0,0,0,0-0.1,0c0,0,0-0.1,0-0.1C831.7,453.3,838.3,462.8,832.5,479.4 M786.3,497.8
			c-13.6-10.3-10.8-15.9-9-17.8c0,0,0-0.1,0-0.1c0,0-0.1-0.1-0.1,0c-8.2,5.8-7.7,19.6,7.6,25.8c13.3,5.4,23.4,0.4,25-0.5
			c0.1,0,0.1-0.1,0-0.1C803.1,505.2,794.2,503.8,786.3,497.8 M812.2,478.6c9.3-15.8,14.9-14.5,15.4-14.4c0,0,0,0,0,0
			c-0.9-13.9-11.5-5.8-15.6,14.4C812,478.6,812.1,478.6,812.2,478.6 M792.9,463.8c-4.3-21.4,2.3-22,3-22c0,0,0,0,0-0.1
			c-8.1-11.7-15.7,0.3-3.2,22.2C792.8,463.9,792.9,463.8,792.9,463.8 M779.3,489.7C779.3,489.7,779.3,489.7,779.3,489.7
			c0.4-0.6,4-6.9,20.4-4.4c0.1,0,0.1-0.1,0.1-0.2C784.8,474.5,771.3,478.5,779.3,489.7 M787.4,436.5L787.4,436.5
			C787.4,436.6,787.4,436.6,787.4,436.5c2.2-1.6,7.9-3.3,14.6,15.9c3.9,11.1,3.4,22.2,2,30.5c0,0.1,0.1,0.1,0.1,0.1
			c1.2-1.8,7.7-12.6,5.4-30c-2.6-19.8-15.1-24.6-22.1-16.6C787.3,436.5,787.3,436.5,787.4,436.5"/>
	</g>
</g>
</svg>
